<svg width="135" height="128" viewBox="0 0 135 128" fill="none" xmlns="http://www.w3.org/2000/svg">
<path d="M52.002 22.9492C40.7715 25.0651 32.8776 33.2031 28.3203 47.3633C26.0417 54.362 24.9023 61.2793 24.9023 68.1152C24.9023 68.929 24.9023 69.6615 24.9023 70.3125C25.0651 70.8008 25.2279 72.0215 25.3906 73.9746H52.002V127.197H0V78.125C0 54.0365 4.80143 35.4818 14.4043 22.4609C24.0072 9.4401 36.5397 1.95312 52.002 0V22.9492ZM134.277 22.9492C125.326 24.4141 118.49 29.4596 113.77 38.0859C109.212 46.7122 106.934 56.6406 106.934 67.8711C106.934 68.8477 106.934 69.8242 106.934 70.8008C107.096 71.7773 107.34 72.8353 107.666 73.9746H134.277V127.197H82.0312V78.125C82.0312 58.7565 86.1003 41.5039 94.2383 26.3672C102.376 11.0677 115.723 2.27865 134.277 0V22.9492Z" fill="#111111"/>
</svg>
